<?xml version="1.0" encoding="iso-8859-1"?>
<!-- Generator: Adobe Illustrator 16.0.0, SVG Export Plug-In . SVG Version: 6.00 Build 0)  -->
<!DOCTYPE svg PUBLIC "-//W3C//DTD SVG 1.1//EN" "http://www.w3.org/Graphics/SVG/1.1/DTD/svg11.dtd">
<svg version="1.1" id="Capa_1" xmlns="http://www.w3.org/2000/svg" xmlns:xlink="http://www.w3.org/1999/xlink" x="0px" y="0px"
	 width="579.328px" height="579.329px" viewBox="0 0 579.328 579.329" style="enable-background:new 0 0 579.328 579.329;"
	 xml:space="preserve">
<g>
	<g>
		<path d="M1.605,461.067c0.327,1.763,0.975,3.423,1.881,4.941c1.677,3.231,4.117,6.066,7.193,8.119
			c2.036,1.354,4.198,1.016,5.777-0.099c2.269-0.918,3.909-3.268,2.64-6.177c-0.074-0.163-0.106-0.339-0.163-0.506
			c4.924-6.577,11.709-11.294,19.771-13.289c10.408-1.705,20.767-3.464,31.077-5.401c22.416-4.211,44.68-9.254,66.994-14.003
			c4.721-1.003,9.38-2.313,15.149-3.753c4.949,19.747,17.764,32.297,37.658,36.528c8.841,1.881,18.156,1.432,27.209,2.46
			c13.391,1.518,26.704,3.782,40.11,5.03c12.726,1.184,25.937-0.298,38.234,2.485c35.598,8.058,71.645,10.285,107.879,10.897
			c9.355,0.159,19.331-0.099,28.018-3.085c26.536-9.123,53.215-9.106,80.608-5.826c10.73,1.285,21.938-1.102,32.889-2.211
			c2.921-0.298,5.695-2.044,9.857-3.632c-8.988-2.729-16.128-4.896-23.269-7.066c0.229-0.922,0.457-1.84,0.686-2.762l31.845,4.537
			c0.24-0.897,0.485-1.8,0.726-2.697c-2.321-1.281-4.643-2.562-6.825-3.77c4.541-2.677,1.692-8.834-4.981-9.96
			c-3.529-0.596-7.083-1.023-12.808-1.84c6.083-0.82,10.09-1.362,14.794-1.995c-1.261-1.277-1.64-2.02-2.089-2.064
			c-20.273-2.048-40.543-5.341-60.845-5.557c-12.832-0.135-22.607-5.92-32.571-11.522c-3.659-2.056-4.479-9.167-7.192-15.328
			c5.259-2.416,9.894-4.545,15.377-7.059c-2.101-3.664-4.3-7.503-6.919-12.064c3.725-1.832,7.38-3.631,11.64-5.729
			c-1.791-2.607-3.517-5.12-4.104-5.977c7.989-8.291,15.614-16.206,23.799-24.701c-0.767-0.795-2.579-2.676-5.451-5.654
			c5.345,0.497,9.009,0.84,14.554,1.354c-2.607-3.142-4.06-4.9-5.981-7.218l8.646,1.232c11.298-25.312,1.922-70.535-16.736-80.996
			c10.103-6.728,33.199-8.091,46.219-2.713c0.905,0.375,1.763,0.861,2.668,1.236c14.431,5.965,28.862,11.921,43.762,16.805
			c-20.428-15.492-44.394-23.203-67.87-32.575c16.442,3.705,32.881,7.41,49.323,11.11c0.225-0.91,0.448-1.815,0.673-2.725
			c-27.136-6.516-54.276-13.032-77.667-18.646c24.402,1.069,52.682,2.306,80.96,3.546c0.073-1.277,0.146-2.554,0.22-3.835
			c-34.773-2.105-69.543-4.21-104.317-6.316c27.896-3.333,56.092-5.353,82.388-16.418c-0.114-0.853-0.229-1.705-0.339-2.558
			c-10.828,1.31-21.685,2.432-32.484,3.966c-31.294,4.443-62.522,9.372-93.856,13.501c-26.691,3.517-50.625-5.663-73.44-18.185
			c-4.268-2.342-7.413-6.72-11.089-10.147c9.661-21.024,4.193-24.472,35.356-22.473c-5.263-2.191-10.452-4.586-15.813-6.512
			c-5.194-1.869-10.563-3.256-15.79-6.222c13.085,0.449,26.169,0.894,39.254,1.342c0.188-0.926,0.375-1.852,0.563-2.778
			c-18.487-3.852-36.97-7.699-55.46-11.55c17.475-2.065,35.06-4.141,52.645-6.222c-0.041-0.873-0.086-1.742-0.127-2.611
			c-24.329-6.336-49.086-2.338-73.958-2.036c23.305-6.638,46.512-13.142,65.492-29.441c-29.972-0.518-56.463,14.574-85.23,19.421
			c22.419-10.918,44.626-21.808,60.718-42.685c-3.917,1.065-8.07,1.62-11.705,3.292c-12.146,5.598-24.297,11.24-36.108,17.503
			c-35.153,18.646-70.347,37.234-105.047,56.695c-7.829,4.39-15.043,11.322-20.155,18.728c-5.296,7.666-0.351,15.112,7.878,19.996
			c35.345,20.975,68.038,45.32,91.184,80.062c4.276,6.418,6.508,15.198,6.887,23.023c1.188,24.423-5.096,47.495-15.288,71.53
			c-2.627-5.475-3.476-10.049-6.218-12.505c-18.458-16.52-45.374-18.69-67.532-7.495c-46.284,23.391-92.792,46.349-139.475,68.936
			c-10.473,5.067-21.958,8.145-33.129,11.648c-9.551,2.995-12.722,8.801-9.621,16.369C1.267,459.537,1.414,460.308,1.605,461.067z"
			/>
	</g>
</g>
<g>
</g>
<g>
</g>
<g>
</g>
<g>
</g>
<g>
</g>
<g>
</g>
<g>
</g>
<g>
</g>
<g>
</g>
<g>
</g>
<g>
</g>
<g>
</g>
<g>
</g>
<g>
</g>
<g>
</g>
</svg>
