<svg xmlns="http://www.w3.org/2000/svg" x="0px" y="0px"
width="96" height="96"
viewBox="0 0 172 172"
style=" fill:#000000;"><g transform="translate(3.354,3.354) scale(0.961,0.961)"><g fill="none" fill-rule="nonzero" stroke="none" stroke-width="none" stroke-linecap="butt" stroke-linejoin="none" stroke-miterlimit="10" stroke-dasharray="" stroke-dashoffset="0" font-family="none" font-weight="none" font-size="none" text-anchor="none" style="mix-blend-mode: normal"><g fill="#3498db" stroke="#51acff" stroke-width="7" stroke-linejoin="round"><path d="M52.1375,6.235c0.1075,0.06719 0.215,0.13438 0.3225,0.215c0.09406,0.06719 0.22844,0.04031 0.3225,0.1075c12.20125,6.26188 36.07969,11.56969 57.2975,15.1575c10.60219,1.80063 20.5325,3.15781 28.2725,4.1925c7.6325,1.00781 12.73875,1.72 14.7275,2.0425v-0.1075c0.06719,0.01344 0.14781,0.09406 0.215,0.1075c3.73563,0.45688 8.2775,2.02906 12.04,5.59c3.82969,3.62813 6.665,9.29875 6.665,16.985c0.01344,1.19594 -0.60469,2.29781 -1.59906,2.92938c-1.00781,0.645 -2.27094,0.71219 -3.34594,0.18812c0,0 -3.57437,-1.74687 -8.7075,-2.0425c0.56438,0.04031 -0.65844,0.20156 -2.2575,1.3975c-1.59906,1.19594 -3.72219,3.01 -6.1275,5.2675c-4.81062,4.52844 -10.89781,10.61563 -17.9525,15.91c-7.05469,5.29438 -15.11719,9.89 -24.08,11.5025c-2.17687,0.38969 -4.4075,0.55094 -6.665,0.5375c1.78719,1.76031 3.46688,3.66844 5.0525,5.6975c6.3425,8.11625 10.6425,18.57063 10.6425,31.9275c0,21.21781 -14.19,46.3325 -14.19,46.3325c-0.48375,1.23625 -1.62594,2.09625 -2.95625,2.19031c-1.33031,0.09406 -2.59344,-0.57781 -3.25187,-1.73344c-0.645,-1.16906 -0.57781,-2.59344 0.18812,-3.68188c0,0 13.33,-25.11469 13.33,-43.1075c0,-11.91906 -3.61469,-20.65344 -9.1375,-27.735c-4.39406,-5.63031 -10.07812,-10.105 -16.125,-14.0825c-1.76031,-0.91375 -3.52062,-1.97531 -5.2675,-3.225c-0.14781,-0.09406 -0.29562,-0.20156 -0.43,-0.3225c-7.44437,-4.42094 -14.9425,-8.25062 -20.9625,-12.47c-6.27531,-4.4075 -11.395,-9.86312 -11.395,-17.2c0,-5.03906 2.53969,-8.66719 4.515,-12.3625c1.97531,-3.69531 3.7625,-7.56531 3.7625,-13.76c0,-3.41312 -1.8275,-7.18906 -6.1275,-10.32c-4.3,-3.13094 -11.16656,-5.4825 -20.7475,-5.4825c-12.24156,0 -22.8975,6.3425 -22.8975,6.3425c-1.03469,0.76594 -2.41875,0.90031 -3.57437,0.3225c-1.16906,-0.57781 -1.90813,-1.74687 -1.92156,-3.03687c-0.01344,-1.29 0.69875,-2.48594 1.84094,-3.09063c0,0 11.95938,-7.4175 26.5525,-7.4175c10.2125,0 18.24813,2.39188 23.9725,6.235zM20.22344,15.46656c0.61813,1.075 0.61813,2.39187 0,3.46687c-0.63156,1.075 -1.78719,1.72 -3.02344,1.70656c-1.08844,0 -2.28437,0.3225 -3.44,0.7525c0.49719,25.77313 11.42188,37.74594 23.1125,49.7725c11.95938,12.30875 25.0475,24.8325 25.0475,49.235c0.01344,1.23625 -0.63156,2.39188 -1.70656,3.02344c-1.075,0.61813 -2.39187,0.61813 -3.46687,0c-1.075,-0.63156 -1.72,-1.78719 -1.70656,-3.02344c0,-22.0375 -10.99187,-31.9275 -23.1125,-44.3975c-11.30094,-11.62344 -23.36781,-25.42375 -24.94,-50.74c-0.91375,0.69875 -1.505,1.29 -1.505,1.29c-1.37062,1.33031 -3.56094,1.31688 -4.89125,-0.05375c-1.33031,-1.37062 -1.31688,-3.56094 0.05375,-4.89125c0,0 7.14875,-7.8475 16.555,-7.8475c1.23625,-0.01344 2.39188,0.63156 3.02344,1.70656zM61.8125,21.6075l10.105,3.3325c1.81406,0.59125 2.795,2.53969 2.20375,4.35375c-0.59125,1.81406 -2.53969,2.795 -4.35375,2.20375l-8.385,-2.795c-0.215,1.22281 -0.43,2.35156 -0.7525,3.44c9.97063,5.03906 20.9625,5.92594 35.905,6.45c16.0175,0.55094 36.29469,0.84656 63.425,6.235c0.36281,0.01344 0.72563,0.08063 1.075,0.215c1.14219,0.18813 2.19031,0.38969 3.225,0.645c-0.77937,-3.05031 -1.96187,-5.60344 -3.655,-7.2025c-2.52625,-2.39187 -5.85875,-3.49375 -8.2775,-3.7625c-0.04031,0 -0.06719,0 -0.1075,0c-1.16906,-0.18812 -6.94719,-0.90031 -14.7275,-1.935c-7.78031,-1.03469 -17.87187,-2.48594 -28.595,-4.3c-16.40719,-2.78156 -34.13125,-6.45 -47.8375,-11.18c0.45688,1.38406 0.65844,2.87563 0.7525,4.3zM51.6,23.005c0,2.40531 -2.10969,4.515 -4.515,4.515c-2.40531,0 -9.245,-6.5575 -9.245,-6.5575c0,0 6.83969,-2.365 9.245,-2.365c2.40531,0 4.515,2.00219 4.515,4.4075zM57.405,39.6675c-2.15,4.04469 -3.7625,6.59781 -3.7625,9.1375c0,4.1925 2.9025,7.57875 8.4925,11.5025c5.59,3.92375 13.4375,7.92813 21.5,12.7925c1.51844,0.91375 2.99656,1.90813 4.515,2.9025c6.51719,3.39969 12.60438,3.9775 18.5975,2.9025c7.37719,-1.33031 14.60656,-5.38844 21.1775,-10.32c6.57094,-4.93156 12.49688,-10.65594 17.415,-15.265c1.35719,-1.27656 2.55313,-2.45906 3.7625,-3.5475c-21.83594,-3.60125 -38.61937,-3.80281 -52.7825,-4.3c-14.87531,-0.51062 -27.03625,-1.29 -38.3775,-6.88c-0.17469,0.34938 -0.36281,0.7525 -0.5375,1.075z"></path></g><path d="M0,172v-172h172v172z" fill="none" stroke="none" stroke-width="1" stroke-linejoin="miter"></path><g fill="#3498db" stroke="none" stroke-width="1" stroke-linejoin="miter"><path d="M28.165,0c-14.59312,0 -26.5525,7.4175 -26.5525,7.4175c-1.14219,0.60469 -1.85437,1.80063 -1.84094,3.09063c0.01344,1.29 0.7525,2.45906 1.92156,3.03687c1.15562,0.57781 2.53969,0.44344 3.57437,-0.3225c0,0 10.65594,-6.3425 22.8975,-6.3425c9.58094,0 16.4475,2.35156 20.7475,5.4825c4.3,3.13094 6.1275,6.90688 6.1275,10.32c0,6.19469 -1.78719,10.06469 -3.7625,13.76c-1.97531,3.69531 -4.515,7.32344 -4.515,12.3625c0,7.33688 5.11969,12.7925 11.395,17.2c6.02,4.21938 13.51813,8.04906 20.9625,12.47c0.13438,0.12094 0.28219,0.22844 0.43,0.3225c1.74688,1.24969 3.50719,2.31125 5.2675,3.225c6.04688,3.9775 11.73094,8.45219 16.125,14.0825c5.52281,7.08156 9.1375,15.81594 9.1375,27.735c0,17.99281 -13.33,43.1075 -13.33,43.1075c-0.76594,1.08844 -0.83312,2.51281 -0.18812,3.68188c0.65844,1.15562 1.92156,1.8275 3.25187,1.73344c1.33031,-0.09406 2.4725,-0.95406 2.95625,-2.19031c0,0 14.19,-25.11469 14.19,-46.3325c0,-13.35687 -4.3,-23.81125 -10.6425,-31.9275c-1.58562,-2.02906 -3.26531,-3.93719 -5.0525,-5.6975c2.2575,0.01344 4.48813,-0.14781 6.665,-0.5375c8.96281,-1.6125 17.02531,-6.20812 24.08,-11.5025c7.05469,-5.29437 13.14188,-11.38156 17.9525,-15.91c2.40531,-2.2575 4.52844,-4.07156 6.1275,-5.2675c1.59906,-1.19594 2.82188,-1.35719 2.2575,-1.3975c5.13313,0.29563 8.7075,2.0425 8.7075,2.0425c1.075,0.52406 2.33813,0.45688 3.34594,-0.18812c0.99438,-0.63156 1.6125,-1.73344 1.59906,-2.92938c0,-7.68625 -2.83531,-13.35687 -6.665,-16.985c-3.7625,-3.56094 -8.30437,-5.13312 -12.04,-5.59c-0.06719,-0.01344 -0.14781,-0.09406 -0.215,-0.1075v0.1075c-1.98875,-0.3225 -7.095,-1.03469 -14.7275,-2.0425c-7.74,-1.03469 -17.67031,-2.39187 -28.2725,-4.1925c-21.21781,-3.58781 -45.09625,-8.89562 -57.2975,-15.1575c-0.09406,-0.06719 -0.22844,-0.04031 -0.3225,-0.1075c-0.1075,-0.08062 -0.215,-0.14781 -0.3225,-0.215c-5.72437,-3.84312 -13.76,-6.235 -23.9725,-6.235zM17.2,13.76c-9.40625,0 -16.555,7.8475 -16.555,7.8475c-1.37063,1.33031 -1.38406,3.52063 -0.05375,4.89125c1.33031,1.37063 3.52063,1.38406 4.89125,0.05375c0,0 0.59125,-0.59125 1.505,-1.29c1.57219,25.31625 13.63906,39.11656 24.94,50.74c12.12063,12.47 23.1125,22.36 23.1125,44.3975c-0.01344,1.23625 0.63156,2.39188 1.70656,3.02344c1.075,0.61813 2.39187,0.61813 3.46687,0c1.075,-0.63156 1.72,-1.78719 1.70656,-3.02344c0,-24.4025 -13.08812,-36.92625 -25.0475,-49.235c-11.69062,-12.02656 -22.61531,-23.99937 -23.1125,-49.7725c1.15563,-0.43 2.35156,-0.7525 3.44,-0.7525c1.23625,0.01344 2.39188,-0.63156 3.02344,-1.70656c0.61813,-1.075 0.61813,-2.39187 0,-3.46687c-0.63156,-1.075 -1.78719,-1.72 -3.02344,-1.70656zM61.06,17.3075c13.70625,4.73 31.43031,8.39844 47.8375,11.18c10.72313,1.81406 20.81469,3.26531 28.595,4.3c7.78031,1.03469 13.55844,1.74688 14.7275,1.935c0.04031,0 0.06719,0 0.1075,0c2.41875,0.26875 5.75125,1.37063 8.2775,3.7625c1.69313,1.59906 2.87563,4.15219 3.655,7.2025c-1.03469,-0.25531 -2.08281,-0.45687 -3.225,-0.645c-0.34937,-0.13437 -0.71219,-0.20156 -1.075,-0.215c-27.13031,-5.38844 -47.4075,-5.68406 -63.425,-6.235c-14.9425,-0.52406 -25.93437,-1.41094 -35.905,-6.45c0.3225,-1.08844 0.5375,-2.21719 0.7525,-3.44l8.385,2.795c1.81406,0.59125 3.7625,-0.38969 4.35375,-2.20375c0.59125,-1.81406 -0.38969,-3.7625 -2.20375,-4.35375l-10.105,-3.3325c-0.09406,-1.42437 -0.29562,-2.91594 -0.7525,-4.3zM47.085,18.5975c-2.40531,0 -9.245,2.365 -9.245,2.365c0,0 6.83969,6.5575 9.245,6.5575c2.40531,0 4.515,-2.10969 4.515,-4.515c0,-2.40531 -2.10969,-4.4075 -4.515,-4.4075zM57.9425,38.5925c11.34125,5.59 23.50219,6.36938 38.3775,6.88c14.16313,0.49719 30.94656,0.69875 52.7825,4.3c-1.20937,1.08844 -2.40531,2.27094 -3.7625,3.5475c-4.91812,4.60906 -10.84406,10.33344 -17.415,15.265c-6.57094,4.93156 -13.80031,8.98969 -21.1775,10.32c-5.99312,1.075 -12.08031,0.49719 -18.5975,-2.9025c-1.51844,-0.99437 -2.99656,-1.98875 -4.515,-2.9025c-8.0625,-4.86437 -15.91,-8.86875 -21.5,-12.7925c-5.59,-3.92375 -8.4925,-7.31 -8.4925,-11.5025c0,-2.53969 1.6125,-5.09281 3.7625,-9.1375c0.17469,-0.3225 0.36281,-0.72562 0.5375,-1.075z"></path></g><path d="" fill="none" stroke="none" stroke-width="1" stroke-linejoin="miter"></path></g></g></svg>
